<?xml version="1.0" encoding="utf-8"?>
<!-- Generator: Adobe Illustrator 27.5.0, SVG Export Plug-In . SVG Version: 6.00 Build 0)  -->
<svg version="1.1" id="Calque_1" xmlns="http://www.w3.org/2000/svg" xmlns:xlink="http://www.w3.org/1999/xlink" x="0px" y="0px"
	 viewBox="0 0 1024 576" style="enable-background:new 0 0 1024 576;" xml:space="preserve">
<style type="text/css">
	.st0{fill:#727C6D;}
</style>
<g>
	<g>
		<path class="st0" d="M512,292.6c2.6,0,4.7-2.1,4.7-4.7c0-2.6-2.1-4.7-4.7-4.7s-4.7,2.1-4.7,4.7C507.3,290.5,509.4,292.6,512,292.6
			z M512,285.9c1,0,1.9,0.9,1.9,1.9s-0.9,1.9-1.9,1.9s-1.9-0.9-1.9-1.9S510.9,285.9,512,285.9L512,285.9z"/>
		<path class="st0" d="M512,298.6c6,0,10.8-4.8,10.8-10.8S518,277,512,277s-10.8,4.8-10.8,10.8S506,298.6,512,298.6L512,298.6z
			 M512,279.8c4.4,0,8,3.6,8,7.9s-3.6,7.9-8,7.9s-8-3.6-8-7.9S507.6,279.8,512,279.8z"/>
		<path class="st0" d="M512,304.6c9.3,0,16.8-7.6,16.8-16.8c0-9.2-7.5-16.8-16.8-16.8s-16.8,7.6-16.8,16.8
			C495.2,297,502.7,304.6,512,304.6z M512,273.8c7.7,0,14,6.3,14,14c0,7.7-6.3,14-14,14s-14-6.3-14-14
			C498,280.1,504.3,273.8,512,273.8z"/>
		<path class="st0" d="M512,310.7c12.6,0,22.9-10.3,22.9-22.9c0-12.6-10.3-22.9-22.9-22.9s-22.9,10.3-22.9,22.9
			C489.1,300.4,499.4,310.7,512,310.7z M512,267.8c11,0,20,9,20,20s-9,20-20,20s-20-9-20-20S500.9,267.8,512,267.8L512,267.8z"/>
		<path class="st0" d="M512,316.7c15.9,0,28.9-13,28.9-28.9s-13-28.9-28.9-28.9s-28.9,13-28.9,28.9S496,316.7,512,316.7L512,316.7z
			 M512,261.7c14.4,0,26.1,11.7,26.1,26.1c0,14.4-11.7,26.1-26.1,26.1c-14.4,0-26.1-11.7-26.1-26.1
			C485.9,273.4,497.6,261.7,512,261.7z"/>
		<path class="st0" d="M512,322.8c19.3,0,35-15.7,35-35c0-19.3-15.7-35-35-35s-35,15.7-35,35C477,307.1,492.7,322.8,512,322.8
			L512,322.8z M512,255.7c17.7,0,32.1,14.4,32.1,32.1s-14.4,32.1-32.1,32.1c-17.7,0-32.1-14.4-32.1-32.1S494.3,255.7,512,255.7z"/>
		<path class="st0" d="M512,249.6c12.9,0,24.3,6.4,31.2,16.3l1.9-2.2c-7.5-10.2-19.5-16.9-33.1-16.9s-25.7,6.7-33.1,16.9l1.9,2.2
			C487.7,256.1,499.1,249.6,512,249.6L512,249.6z"/>
		<path class="st0" d="M549.8,293.1l3.1-2.6c0.1-0.9,0.1-1.8,0.1-2.7c0-7-1.8-13.6-4.9-19.4l-1,0.7c0,0-0.7,0.6-1.3,1
			c2.8,5.3,4.3,11.3,4.3,17.6C550.2,289.6,550,291.4,549.8,293.1z"/>
		<path class="st0" d="M512,328.8c17.9,0,33.1-11.5,38.7-27.5l-3.8,1.9c-5.9,13.4-19.3,22.7-34.9,22.7s-29-9.4-34.9-22.7l-3.8-1.9
			C478.9,317.3,494.1,328.8,512,328.8z"/>
		<path class="st0" d="M478.2,270.2c-0.7-0.4-1.3-1-1.3-1l-1-0.7c-3.1,5.8-4.9,12.4-4.9,19.4c0,0.9,0,1.8,0.1,2.7l3.1,2.6
			c-0.2-1.7-0.4-3.5-0.4-5.3C473.8,281.5,475.4,275.5,478.2,270.2L478.2,270.2z"/>
		<path class="st0" d="M471,264.8c-3.5,6.2-5.6,13.2-6,20.7l2.8,2.3c0-7.7,2-14.9,5.5-21.3L471,264.8L471,264.8z"/>
		<path class="st0" d="M512,334.9c22.5,0,41.4-15.9,46-37.1l-3.3,1.6c-5.1,18.8-22.3,32.6-42.7,32.6s-37.6-13.9-42.7-32.6l-3.3-1.6
			C470.6,318.9,489.5,334.9,512,334.9L512,334.9z"/>
		<path class="st0" d="M559,285.4c-0.4-7.5-2.5-14.5-6-20.7l-2.3,1.7c3.5,6.3,5.5,13.6,5.5,21.3L559,285.4L559,285.4z"/>
		<path class="st0" d="M512,243.6c14.4,0,27.3,6.9,35.3,17.7l1.9-2.1c-8.6-11.1-22.1-18.4-37.2-18.4s-28.6,7.2-37.2,18.4l1.9,2.1
			C484.7,250.5,497.6,243.6,512,243.6z"/>
		<path class="st0" d="M512,237.6c16,0,30.2,7.5,39.4,19.1l1.9-2.1c-9.7-12.1-24.6-19.8-41.3-19.8s-31.6,7.7-41.3,19.8l1.9,2.1
			C481.8,245,496,237.6,512,237.6z"/>
		<path class="st0" d="M459.5,295.6c1.4,9.2,5.1,17.7,10.6,24.8l6,2.6c-7-7.2-11.9-16.5-13.7-26.9
			C461.5,295.7,460.5,295.6,459.5,295.6L459.5,295.6z"/>
		<path class="st0" d="M542.2,331.4c-2.8,0.4-5.7,1-7.5,1.2c-6.8,3.5-14.6,5.5-22.8,5.5s-15.9-2-22.8-5.5c-1.8-0.2-4.7-0.8-7.5-1.2
			c8.6,6,19,9.5,30.2,9.5C523.2,340.9,533.6,337.4,542.2,331.4z"/>
		<path class="st0" d="M466.2,261.1c-3.5,5.9-5.8,12.6-6.8,19.7l2.6,2.2c0.7-7.3,3-14.1,6.5-20.1L466.2,261.1L466.2,261.1z"/>
		<path class="st0" d="M553.9,320.3c5.5-7.1,9.2-15.5,10.6-24.8c-1,0-2,0.2-3,0.5c-1.7,10.4-6.6,19.7-13.7,26.9L553.9,320.3
			L553.9,320.3z"/>
		<path class="st0" d="M564.6,280.7c-1-7.1-3.3-13.7-6.8-19.7l-2.3,1.7c3.5,6,5.7,12.8,6.5,20.1L564.6,280.7z"/>
		<path class="st0" d="M534.5,236.2l0.9-1.2l0.8-1.1c-7.4-3.3-15.6-5.2-24.2-5.2s-16.8,1.9-24.2,5.2l0.8,1.1l0.9,1.2
			c6.9-3,14.5-4.7,22.5-4.7S527.6,233.2,534.5,236.2z"/>
		<path class="st0" d="M564,316c3.1-5.7,5.3-11.9,6.4-18.5c-0.8-0.6-1.7-1.1-2.6-1.4c-1.2,7.9-4,15.3-8.1,21.8L564,316L564,316z"/>
		<path class="st0" d="M484.9,238.5l-2.4-1.9c-6,3.5-11.4,8-15.9,13.4l1.9,2.1C473,246.6,478.6,242,484.9,238.5z"/>
		<path class="st0" d="M551.3,332c-1-0.4-2-0.7-3-0.9c-0.1,0-0.2,0-0.3,0c-9.8,8.1-22.3,13-36,13s-26.2-4.9-36-13
			c-0.1,0-0.2,0-0.4,0c-1,0.1-2,0.4-3,0.9c10.5,9.3,24.2,15,39.3,15C527.1,346.9,540.8,341.3,551.3,332L551.3,332z"/>
		<path class="st0" d="M570,276.2c-1.3-6.7-3.8-13.1-7.2-18.8c-1.3,0.9-2.3,1.6-2.3,1.6c3.5,5.8,5.9,12.3,7.1,19.2L570,276.2
			L570,276.2z"/>
		<path class="st0" d="M461.3,257.5c-3.4,5.7-5.9,12-7.2,18.8l2.5,2.1c1.2-6.9,3.6-13.4,7.1-19.2
			C463.6,259.1,462.5,258.3,461.3,257.5L461.3,257.5z"/>
		<path class="st0" d="M453.7,297.5c1.1,6.6,3.3,12.8,6.4,18.5l4.4,1.9c-4.1-6.5-7-13.9-8.1-21.8
			C455.4,296.4,454.5,296.9,453.7,297.5L453.7,297.5z"/>
		<path class="st0" d="M555.5,252.1l1.9-2.1c-4.5-5.3-9.8-9.9-15.9-13.4l-2.4,1.9C545.4,242,550.9,246.6,555.5,252.1L555.5,252.1z"
			/>
		<path class="st0" d="M449.8,305.2c0,3.9,2.3,7.3,5.7,8.8c-2-4.2-3.5-8.7-4.5-13.4C450.2,302,449.8,303.5,449.8,305.2L449.8,305.2z
			"/>
		<path class="st0" d="M479.8,234.4l-2.3-1.9c-5.6,3.5-10.6,7.9-14.9,12.8l1.9,2.1C468.9,242.4,474,237.9,479.8,234.4L479.8,234.4z"
			/>
		<path class="st0" d="M573.2,273.5c0.5-0.5,1.2-1.2,1.9-2.1c-1.5-5.9-3.8-11.4-6.8-16.5c-0.3,0-0.6,0-0.9,0.1
			c-0.5,0.1-1.1,0.4-1.9,0.7c3.3,5.5,5.8,11.6,7.3,18.1L573.2,273.5L573.2,273.5z"/>
		<path class="st0" d="M574.2,305.2c0-1.7-0.4-3.3-1.2-4.6c-1,4.7-2.5,9.2-4.5,13.4C571.9,312.5,574.2,309.1,574.2,305.2
			L574.2,305.2z"/>
		<path class="st0" d="M456.7,255.1c-0.3-0.1-0.6-0.1-0.9-0.1c-3,5.1-5.3,10.6-6.8,16.5c0.7,0.8,1.4,1.6,1.9,2.1l0.5,0.4
			c1.5-6.5,4-12.6,7.3-18.1C457.8,255.4,457.1,255.2,456.7,255.1L456.7,255.1z"/>
		<path class="st0" d="M559.5,247.5l1.9-2.1c-4.3-5-9.3-9.3-14.9-12.8l-2.3,1.9C550,237.9,555.1,242.4,559.5,247.5L559.5,247.5z"/>
		<path class="st0" d="M538.2,231.3l1.8-2.3c-8.5-4.1-18-6.3-28-6.3s-19.5,2.3-28,6.3l1.8,2.3c8-3.7,16.9-5.8,26.2-5.8
			C521.4,225.5,530.3,227.6,538.2,231.3z"/>
		<path class="st0" d="M555.7,336.2c-0.4-0.9-0.9-1.7-1.6-2.4c-11.1,10.1-25.9,16.4-42,16.4s-31-6.2-42-16.4
			c-0.7,0.7-1.2,1.4-1.6,2.4c11.6,10.4,26.9,16.8,43.6,16.8C528.8,353,544.1,346.6,555.7,336.2L555.7,336.2z"/>
		<path class="st0" d="M542,226.4l1.8-2.3c-9.6-4.8-20.3-7.5-31.7-7.5s-22.2,2.7-31.7,7.5l1.8,2.3c9.1-4.4,19.2-6.9,30-6.9
			S532.9,221.9,542,226.4z"/>
		<path class="st0" d="M474.9,230.4L474.9,230.4l-0.2-0.2c-0.9-0.6-1.7-1.1-2.5-1.4c-4.8,3.2-9.1,7-13,11.3c0.3,1,0.8,1.9,1.3,2.8
			C464.7,238.1,469.5,233.9,474.9,230.4L474.9,230.4z"/>
		<path class="st0" d="M578.6,264.7c0-3.7-1.8-8.1-6.4-9.4c2.2,4,4,8.3,5.3,12.7C578.1,266.9,578.6,265.7,578.6,264.7L578.6,264.7z"
			/>
		<path class="st0" d="M519.7,358.6c3.3-0.4,6.6-1,9.8-1.8c-0.7-0.9-1.3-1.8-1.8-2.5c-3,0.7-6,1.2-9.1,1.5L519.7,358.6z"/>
		<path class="st0" d="M537.3,352.6c3.1-0.3,7.4-1.6,11-3.6c0.8-0.5,1.5-1,2.3-1.5c2.8-2,4.9-4.5,5.3-7.5
			c-6.4,5.4-13.8,9.6-21.9,12.4C535.9,352.8,537.3,352.6,537.3,352.6L537.3,352.6z"/>
		<path class="st0" d="M563.5,242.9c0.6-0.9,1-1.8,1.3-2.8c-3.8-4.3-8.2-8.1-13-11.3c-0.9,0.4-1.7,0.8-2.5,1.4l-0.2,0.2l0,0
			C554.5,233.9,559.3,238.1,563.5,242.9L563.5,242.9z"/>
		<path class="st0" d="M473.3,347.6c0.8,0.5,1.5,1,2.3,1.5c3.7,2,8,3.3,11,3.6c0,0,1.4,0.1,3.2-0.1c-8.1-2.8-15.5-7-21.9-12.4
			C468.5,343.1,470.6,345.6,473.3,347.6L473.3,347.6z"/>
		<path class="st0" d="M445.4,264.7c0,0.9,0.5,2.1,1.1,3.3c1.3-4.4,3.1-8.7,5.3-12.7C447.3,256.6,445.4,261,445.4,264.7L445.4,264.7
			z"/>
		<path class="st0" d="M514.9,358.9v-2.8c-0.9,0-1.9,0.1-2.8,0.1s-1.9,0-2.8-0.1v2.8c1,0,1.9,0.1,2.9,0.1
			C513.2,359,513.9,359,514.9,358.9z"/>
		<path class="st0" d="M494.5,356.8c3.2,0.8,6.4,1.4,9.8,1.8l1.1-2.7c-3.1-0.3-6.1-0.8-9.1-1.5C495.8,355,495.2,355.9,494.5,356.8
			L494.5,356.8z"/>
		<path class="st0" d="M497.3,213.8c-0.3-0.3-1-0.9-1.6-1.6c-6.2,1.3-12.1,3.4-17.7,6.1c0,1,0.2,2,0.5,2.9
			c6.2-3.1,12.9-5.4,19.9-6.7C498.1,214.4,497.7,214.2,497.3,213.8L497.3,213.8z"/>
		<path class="st0" d="M565.4,236c0.1-2.3-0.2-4-2.8-6.3c-2.3-2.1-4.1-2.5-6.8-2C559.2,230.2,562.5,233,565.4,236L565.4,236z"/>
		<path class="st0" d="M545.9,218.4c-5.5-2.7-11.5-4.8-17.7-6.1c-0.6,0.6-1.3,1.3-1.6,1.5c-0.4,0.3-0.7,0.6-1.1,0.8
			c7,1.3,13.7,3.6,19.9,6.7C545.8,220.4,545.9,219.4,545.9,218.4L545.9,218.4z"/>
		<path class="st0" d="M522,364.4c3.7-0.5,7.3-1.2,10.9-2.2c-0.1-0.4-0.3-0.7-0.4-1.1c-0.1-0.2-0.5-0.8-1-1.5
			c-3.4,0.9-7,1.6-10.6,2.1L522,364.4L522,364.4z"/>
		<path class="st0" d="M468.2,227.7c-2.7-0.5-4.5-0.1-6.8,2c-2.6,2.4-2.9,4.1-2.8,6.3C461.5,233,464.7,230.2,468.2,227.7
			L468.2,227.7z"/>
		<path class="st0" d="M522.5,214.1c-0.5-0.5-0.9-1.2-0.9-2v-0.9c-3.2-0.4-6.4-0.6-9.7-0.6s-6.5,0.2-9.7,0.6v0.9
			c0,0.8-0.3,1.5-0.9,2c3.5-0.5,7-0.8,10.5-0.8C515.6,213.4,519.1,213.6,522.5,214.1z"/>
		<path class="st0" d="M491.5,361.1c-0.1,0.3-0.3,0.7-0.4,1.1c3.5,1,7.2,1.7,10.9,2.2l1.1-2.7c-3.6-0.4-7.1-1.1-10.6-2.1
			C492,360.3,491.6,360.9,491.5,361.1L491.5,361.1z"/>
		<path class="st0" d="M515,365v-2.8c-1,0-2,0.1-2.9,0.1s-2,0-2.9-0.1v2.8c1,0,2,0.1,3,0.1C513.2,365.1,514,365,515,365L515,365z"/>
		<path class="st0" d="M485.3,208.9c-0.6,0.2-1.2,0.4-1.9,0.7c-1,0.5-2,1.1-2.8,1.9s-1.4,1.8-1.9,3.1c4.5-2,9.2-3.7,14-4.9
			C490.7,208.5,487.9,208.2,485.3,208.9z"/>
		<path class="st0" d="M521.7,207.9V205c-3.2-0.4-6.4-0.6-9.7-0.6s-6.5,0.2-9.7,0.6v2.9c3.2-0.4,6.4-0.6,9.7-0.6
			S518.5,207.6,521.7,207.9z"/>
		<path class="st0" d="M543.3,211.4c-0.8-0.8-1.8-1.4-2.8-1.9c-0.6-0.2-1.2-0.4-1.8-0.7c-2.6-0.7-5.4-0.4-7.5,0.8
			c4.9,1.2,9.6,2.8,14,4.9C544.8,213.3,544.1,212.2,543.3,211.4z"/>
		<path class="st0" d="M515.1,371l-0.1-2.9c-1,0-2,0.1-3.1,0.1c-1.1,0-2,0-3.1-0.1l-0.1,2.9c1,0,2.1,0.1,3.1,0.1
			S514.1,371.1,515.1,371L515.1,371z"/>
		<path class="st0" d="M493.7,368.9c2.6,0.8,4.7,0,6.2-1.5c-3.2-0.5-6.3-1.2-9.4-2C490.6,366.8,491.4,368.2,493.7,368.9L493.7,368.9
			z"/>
		<path class="st0" d="M530.3,368.9c2.3-0.7,3.1-2,3.2-3.5c-3.1,0.9-6.2,1.5-9.4,2C525.6,368.8,527.6,369.7,530.3,368.9L530.3,368.9
			z"/>
		<path class="st0" d="M515.2,377.1v-2.8c-1,0-2.1,0.1-3.2,0.1s-2.1,0-3.2-0.1v2.8c1.1,0,2.1,0.1,3.2,0.1S514.2,377.1,515.2,377.1z"
			/>
		<path class="st0" d="M521.6,201.8c-0.1-1-0.3-2-0.7-2.9c-2.9-0.3-5.9-0.4-8.9-0.4c-3,0-6,0.2-8.9,0.4c-0.4,0.9-0.6,1.9-0.7,2.9
			c3.2-0.3,6.4-0.5,9.6-0.5S518.4,201.5,521.6,201.8L521.6,201.8z"/>
		<path class="st0" d="M515.3,381v-0.7c-1.1,0-2.2,0.1-3.3,0.1s-2.2,0-3.3-0.1v0.7c0,0.9,1,2.1,2.3,2.1h2.1
			C514.3,383.2,515.3,381.9,515.3,381L515.3,381z"/>
		<path class="st0" d="M518.5,195.5c-1.7-1.6-4-2.6-6.5-2.6s-4.8,1-6.5,2.6c2.2-0.2,4.4-0.2,6.5-0.2
			C514.2,195.2,516.4,195.3,518.5,195.5z"/>
	</g>
</g>
</svg>
