<?xml version="1.0" encoding="UTF-8" standalone="no"?>
<!-- Created with Inkscape (http://www.inkscape.org/) -->

<svg
   version="1.1"
   id="svg1"
   width="30.666668"
   height="32"
   viewBox="0 0 30.666668 32"
   sodipodi:docname="add_data.svg"
   inkscape:version="1.4 (86a8ad7, 2024-10-11)"
   xml:space="preserve"
   xmlns:inkscape="http://www.inkscape.org/namespaces/inkscape"
   xmlns:sodipodi="http://sodipodi.sourceforge.net/DTD/sodipodi-0.dtd"
   xmlns="http://www.w3.org/2000/svg"
   xmlns:svg="http://www.w3.org/2000/svg"><defs
     id="defs1" /><sodipodi:namedview
     id="namedview1"
     pagecolor="#ffffff"
     bordercolor="#666666"
     borderopacity="1.0"
     inkscape:showpageshadow="2"
     inkscape:pageopacity="0.0"
     inkscape:pagecheckerboard="0"
     inkscape:deskcolor="#d1d1d1"
     inkscape:zoom="6.5941446"
     inkscape:cx="35.106904"
     inkscape:cy="-3.1088187"
     inkscape:window-width="1920"
     inkscape:window-height="1001"
     inkscape:window-x="-9"
     inkscape:window-y="-9"
     inkscape:window-maximized="1"
     inkscape:current-layer="g2" /><g
     inkscape:groupmode="layer"
     inkscape:label="Image"
     id="g1"><g
       id="g2"
       transform="matrix(1.0333333,0,0,1.0333333,-0.51111062,-0.5333329)"
       style="stroke-width:0.967742"><path
         id="path2"
         style="fill:#008080;fill-opacity:1;stroke:#ffffff;stroke-width:0;stroke-miterlimit:3.3;paint-order:fill markers stroke"
         d="M 15.333334,1.0000002 C 7.0490625,1.0000009 0.33333394,7.7157295 0.33333394,16 c 0,8.284271 6.71572856,14.999999 15.00000006,15 8.284271,-1e-6 15,-6.715729 15,-15 0,-8.2842706 -6.715729,-14.9999991 -15,-14.9999998 z"
         sodipodi:nodetypes="sssss" /><path
         id="path1"
         style="fill:#ffffff;stroke:#ffffff;stroke-width:1.45161295;stroke-dasharray:none"
         d="m 15.269531,7.9980469 c -0.808275,0.1520375 -0.557491,1.1680422 -0.585104,1.7523427 -9.3e-5,1.8605894 -0.01874,3.7211014 -0.03013,5.5816414 -2.349934,0.03747 -4.7146289,-0.08272 -7.0546876,0.109375 -0.5517182,0.40737 -0.1675627,1.346133 0.5234375,1.208985 2.1751661,-0.04067 4.3530761,0.02389 6.5292971,0.02539 0.0607,2.343343 -0.06265,4.710732 0.126953,7.039063 0.457325,0.642553 1.464735,0.04099 1.219705,-0.679267 -0.03394,-2.11718 0.0095,-4.240299 -0.0068,-6.359796 2.343195,-0.05228 4.701377,0.04533 7.035156,-0.111328 0.654288,-0.429039 0.105952,-1.462989 -0.619141,-1.216797 -2.141401,0.01665 -4.285358,-0.02578 -6.427734,-0.03125 -0.03428,-2.331828 0.10812,-4.671959 -0.07617,-6.9980466 C 15.761194,8.1208032 15.524544,7.9559273 15.269531,7.9980469 Z" /></g></g></svg>
