<?xml version="1.0" encoding="UTF-8" standalone="no"?>
<!-- Created with Inkscape (http://www.inkscape.org/) -->

<svg
   version="1.1"
   id="svg1"
   width="30.666668"
   height="32"
   viewBox="0 0 30.666668 32"
   sodipodi:docname="forest_settings.svg"
   inkscape:version="1.4 (86a8ad7, 2024-10-11)"
   xml:space="preserve"
   xmlns:inkscape="http://www.inkscape.org/namespaces/inkscape"
   xmlns:sodipodi="http://sodipodi.sourceforge.net/DTD/sodipodi-0.dtd"
   xmlns="http://www.w3.org/2000/svg"
   xmlns:svg="http://www.w3.org/2000/svg"><defs
     id="defs1" /><sodipodi:namedview
     id="namedview1"
     pagecolor="#ffffff"
     bordercolor="#666666"
     borderopacity="1.0"
     inkscape:showpageshadow="2"
     inkscape:pageopacity="0.0"
     inkscape:pagecheckerboard="0"
     inkscape:deskcolor="#d1d1d1"
     inkscape:zoom="10.466186"
     inkscape:cx="7.5003444"
     inkscape:cy="11.22663"
     inkscape:window-width="1920"
     inkscape:window-height="1017"
     inkscape:window-x="1912"
     inkscape:window-y="-8"
     inkscape:window-maximized="1"
     inkscape:current-layer="g1" /><g
     inkscape:groupmode="layer"
     inkscape:label="Image"
     id="g1"><path
       id="path2"
       style="fill:#ff5555;fill-opacity:1;stroke:#ffffff;stroke-width:0;stroke-miterlimit:3.3;paint-order:fill markers stroke"
       d="m 15.333334,0.5000009 c -8.5604139,7e-7 -15.49999994,6.9395867 -15.49999994,15.4999981 0,8.560414 6.93958604,15.499999 15.49999994,15.5 8.560414,-10e-7 15.5,-6.939586 15.5,-15.5 0,-8.5604115 -6.939586,-15.4999974 -15.5,-15.4999981 z"
       sodipodi:nodetypes="sssss" /><path
       style="fill:#ffffff;stroke-width:0.999998"
       d="M 15.078277,28.491062 C 14.360248,27.066541 13.447671,25.780916 10.822308,22.495329 8.0414662,19.01516 6.9154762,17.25933 6.3467192,15.516259 c -0.362259,-1.110221 -0.424995,-1.550141 -0.422827,-2.96494 0.0018,-1.168026 0.01445,-1.315008 0.170358,-1.978177 0.584952,-2.48813 1.954431,-4.481332 4.0144228,-5.8427568 3.227956,-2.1333293 7.344281,-2.0865328 10.592992,0.1204254 0.311971,0.2119311 0.848369,0.6738751 1.265691,1.0900147 2.914341,2.9060396 3.602556,7.2411337 1.736233,10.9365897 -0.759342,1.50355 -1.698802,2.848634 -4.036075,5.778709 -2.368338,2.969019 -3.27854,4.240508 -3.981534,5.561909 -0.171311,0.322009 -0.335277,0.600184 -0.364367,0.618163 -0.02909,0.01799 -0.138594,-0.13733 -0.243336,-0.345134 z m 1.70633,-10.706114 c 2.146022,-0.639781 3.607259,-2.365789 3.893684,-4.599201 0.124299,-0.969231 -0.06856,-2.055746 -0.528545,-2.977726 C 19.42117,8.747692 18.115518,7.7156133 16.488163,7.3136448 15.869125,7.1607378 14.602831,7.1777466 13.972851,7.3474038 11.950547,7.8921044 10.416729,9.5212751 10.00276,11.564297 c -0.1341228,0.661923 -0.09132,1.819008 0.09058,2.448636 0.371202,1.284839 1.134512,2.337406 2.223109,3.065559 0.997548,0.667248 1.908908,0.923103 3.15851,0.886729 0.621718,-0.01812 0.888948,-0.0549 1.30964,-0.180303 z"
       id="path3"
       sodipodi:nodetypes="csscccscssscccssscscsccc" /></g></svg>
