<?xml version="1.0" encoding="UTF-8" standalone="no"?>
<!-- Created with Inkscape (http://www.inkscape.org/) -->

<svg
   version="1.1"
   id="svg1"
   width="30.666668"
   height="32"
   viewBox="0 0 30.666668 32"
   sodipodi:docname="global_settings.svg"
   inkscape:version="1.4 (86a8ad7, 2024-10-11)"
   xml:space="preserve"
   xmlns:inkscape="http://www.inkscape.org/namespaces/inkscape"
   xmlns:sodipodi="http://sodipodi.sourceforge.net/DTD/sodipodi-0.dtd"
   xmlns="http://www.w3.org/2000/svg"
   xmlns:svg="http://www.w3.org/2000/svg"><defs
     id="defs1" /><sodipodi:namedview
     id="namedview1"
     pagecolor="#ffffff"
     bordercolor="#666666"
     borderopacity="1.0"
     inkscape:showpageshadow="2"
     inkscape:pageopacity="0.0"
     inkscape:pagecheckerboard="0"
     inkscape:deskcolor="#d1d1d1"
     inkscape:zoom="20.621688"
     inkscape:cx="11.517001"
     inkscape:cy="17.627073"
     inkscape:window-width="1920"
     inkscape:window-height="1001"
     inkscape:window-x="-9"
     inkscape:window-y="-9"
     inkscape:window-maximized="1"
     inkscape:current-layer="g1" /><g
     inkscape:groupmode="layer"
     inkscape:label="Image"
     id="g1"><path
       id="path2"
       style="fill:#008080;fill-opacity:1;stroke:#ffffff;stroke-width:0;stroke-miterlimit:3.3;paint-order:fill markers stroke"
       d="m 15.333334,0.5000006 c -8.5604136,7e-7 -15.49999957,6.9395867 -15.49999957,15.4999984 0,8.560414 6.93958597,15.499999 15.49999957,15.5 8.560414,-10e-7 15.5,-6.939586 15.5,-15.5 0,-8.5604118 -6.939586,-15.4999977 -15.5,-15.4999984 z"
       sodipodi:nodetypes="sssss" /><path
       style="fill:#ffffff;stroke-width:0.999999"
       d="m 26.477048,30.424652 c -0.16499,-0.04291 -0.434975,-0.145223 -0.599964,-0.22735 -0.290669,-0.14469 -0.508631,-0.358936 -7.019976,-6.900262 -3.695997,-3.713013 -6.749874,-6.750935 -6.786395,-6.750935 -0.03653,0 -0.26133,0.04911 -0.499576,0.109138 -0.393578,0.09916 -0.50265,0.109275 -1.193132,0.110637 -0.654291,0.0013 -0.8180215,-0.0115 -1.1775808,-0.09254 C 8.0656787,16.417845 7.1868847,15.938264 6.3972492,15.143581 6.1632866,14.908122 5.8720635,14.570635 5.7500867,14.393607 5.3023764,13.743842 4.9682964,12.932797 4.8137299,12.120419 4.7104587,11.577635 4.7187437,10.584404 4.8306224,10.095203 4.8753409,9.8996608 4.918556,9.7330049 4.9266662,9.7248537 c 0.00809,-0.00813 0.7160013,0.6902683 1.5731076,1.5520403 0.8571061,0.861771 1.5853739,1.567108 1.6183715,1.567417 0.054919,5.14e-4 0.4104011,-0.09106 1.559907,-0.40187 0.2309872,-0.06245 0.6738477,-0.180955 0.9841357,-0.263336 l 0.56416,-0.14978 0.151381,-0.568013 c 0.08327,-0.312407 0.203575,-0.767169 0.267367,-1.010581 0.06379,-0.243412 0.16003,-0.6055136 0.213864,-0.8046681 0.05384,-0.1991555 0.119236,-0.4573092 0.145364,-0.5736755 L 12.051812,8.8608129 10.487145,7.2831486 C 9.6265791,6.4154335 8.9289328,5.6989923 8.9368217,5.691058 8.9446817,5.683168 9.110214,5.639757 9.3046098,5.594698 9.8220917,5.4747517 10.819833,5.4740517 11.397951,5.593198 c 1.237291,0.2550917 2.187784,0.7821535 3.035629,1.6833021 0.741624,0.7882462 1.164276,1.6192749 1.430195,2.8120819 0.111862,0.501778 0.10055,1.681489 -0.02101,2.189619 l -0.0907,0.379115 6.75675,6.802554 c 7.364713,7.414639 6.92374,6.94304 7.132014,7.627339 0.133252,0.437806 0.133912,1.114256 0.0015,1.508754 -0.156482,0.466119 -0.350386,0.777621 -0.701478,1.126909 -0.668364,0.664928 -1.592876,0.928244 -2.463779,0.701722 z m 1.229058,-1.226375 c 0.345282,-0.145118 0.584651,-0.459228 0.635753,-0.834264 0.05176,-0.379892 -0.187858,-0.820791 -0.546298,-1.005172 -0.67595,-0.347704 -1.476747,0.137735 -1.476747,0.895195 0,0.563156 0.443091,1.00448 1.009468,1.005442 0.127198,2.17e-4 0.297219,-0.02733 0.377824,-0.0612 z"
       id="path1" /></g></svg>
