<?xml version="1.0" encoding="UTF-8" standalone="no"?>
<!-- Created with Inkscape (http://www.inkscape.org/) -->

<svg
   version="1.1"
   id="svg1"
   width="30.666668"
   height="32"
   viewBox="0 0 30.666668 32"
   sodipodi:docname="pedology.svg"
   inkscape:version="1.4 (86a8ad7, 2024-10-11)"
   xml:space="preserve"
   xmlns:inkscape="http://www.inkscape.org/namespaces/inkscape"
   xmlns:sodipodi="http://sodipodi.sourceforge.net/DTD/sodipodi-0.dtd"
   xmlns="http://www.w3.org/2000/svg"
   xmlns:svg="http://www.w3.org/2000/svg"><defs
     id="defs1" /><sodipodi:namedview
     id="namedview1"
     pagecolor="#ffffff"
     bordercolor="#666666"
     borderopacity="1.0"
     inkscape:showpageshadow="2"
     inkscape:pageopacity="0.0"
     inkscape:pagecheckerboard="0"
     inkscape:deskcolor="#d1d1d1"
     inkscape:zoom="14.481547"
     inkscape:cx="12.740352"
     inkscape:cy="18.19557"
     inkscape:window-width="1920"
     inkscape:window-height="1001"
     inkscape:window-x="-9"
     inkscape:window-y="-9"
     inkscape:window-maximized="1"
     inkscape:current-layer="g1" /><g
     inkscape:groupmode="layer"
     inkscape:label="Image"
     id="g1"><path
       id="path2"
       style="fill:#008080;fill-opacity:1;stroke:#ffffff;stroke-width:0;stroke-miterlimit:3.3;paint-order:fill markers stroke"
       d="M 15.333334,0.50000061 C 6.7729204,0.50000133 -0.16666556,7.4395873 -0.16666556,16 c 0,8.560413 6.93958596,15.499998 15.49999956,15.499999 8.560413,-10e-7 15.5,-6.939586 15.5,-15.499999 0,-8.5604128 -6.939587,-15.49999867 -15.5,-15.49999939 z"
       sodipodi:nodetypes="sssss" /><path
       style="fill:#ffffff;stroke-width:0.1;stroke:#ffffff;stroke-dasharray:none"
       d="M 28.171014,27.943737 C 28.024816,27.89947 21.666081,21.722541 17.059467,17.115926 10.276802,10.333261 10.170311,10.231107 10.028729,10.37269 9.8741568,10.52726 9.7906878,10.490673 8.5565094,9.7273978 7.7419151,9.2236115 7.8835943,9.1469665 6.6019646,10.784748 4.7306548,13.176079 3.2816637,15.426158 2.3621085,17.368646 1.8275059,18.497954 1.7864592,18.418202 2.0412946,16.745321 2.5547755,13.374544 3.9010515,10.25833 5.9828499,7.6218347 L 6.6810897,6.737548 6.3977844,6.4542425 C 5.8604647,5.9169231 5.8808427,5.8350818 6.7744786,4.9414462 7.2926124,4.4233122 7.6279687,4.1490931 7.7434856,4.1490931 c 0.09716,0 0.3284628,0.1518087 0.5140053,0.3373516 L 8.5948418,4.8237956 9.4389848,4.1590185 C 12.090228,2.0711188 15.5709,0.60053212 18.943617,0.143303 19.498984,0.068014 20.002233,0.0179419 20.061943,0.0320385 20.121663,0.0461275 19.742592,0.2602325 19.219591,0.50782102 17.28362,1.4242889 15.030492,2.875615 12.64204,4.74467 c -1.640734,1.2839408 -1.563358,1.1386578 -1.044805,1.9617458 0.706811,1.1219047 0.787676,1.3100897 0.6305,1.4672657 -0.1386,0.138601 8.95e-4,0.283909 6.79953,7.0825375 5.30044,5.30044 10.947024,10.857436 10.947024,10.992335 0,0.115518 -0.27422,0.450873 -0.792353,0.969006 -0.708045,0.708045 -0.815611,0.785311 -1.010922,0.726177 z"
       id="path1"
       sodipodi:nodetypes="sssssssscsssscssccsssssss" /><path
       style="fill:#ffffff;stroke-width:0.2;stroke:#ffffff;stroke-dasharray:none"
       d="M 8.4036391,28.507878 C 7.5379307,28.467405 6.6900611,28.171583 5.9967708,27.66815 5.7829064,27.512855 5.6595401,27.404492 5.3919138,27.136867 5.1242918,26.869239 5.0159264,26.745873 4.8606295,26.532005 3.9356856,25.258239 3.7572491,23.556966 4.3967893,22.109522 4.593733,21.663794 4.8598065,21.260135 5.20024,20.890605 c 0.051442,-0.05586 1.0212018,-1.029003 2.1549991,-2.16257 l 2.0614542,-2.061028 1.1405407,1.140549 1.140548,1.140545 -1.066376,1.067185 -1.0663381,1.06721 -0.2252834,0.447142 C 9.2158764,21.775562 9.0571346,22.089957 8.987016,22.228291 8.916903,22.366623 8.7651545,22.666869 8.6497946,22.895506 8.534443,23.124142 8.2939235,23.600449 8.115311,23.953966 7.9366986,24.307486 7.7585704,24.660682 7.7194742,24.738847 l -0.071086,0.142112 0.5575303,-0.280987 c 0.3066384,-0.154544 0.6172584,-0.311623 0.6902717,-0.349064 0.073009,-0.03744 0.3748261,-0.189914 0.6707091,-0.338832 0.2958779,-0.148922 0.6228487,-0.313981 0.7265997,-0.366806 0.10375,-0.05282 0.405568,-0.205272 0.670708,-0.338779 l 0.482071,-0.242736 1.067194,-1.066386 1.067192,-1.066383 1.140549,1.140545 1.14055,1.140549 -2.033091,2.033712 c -1.118193,1.118548 -2.085722,2.083545 -2.150052,2.144453 -0.449196,0.425139 -0.957461,0.74085 -1.531541,0.951321 -0.5435757,0.19929 -1.1607229,0.293556 -1.7434441,0.266307 z m 0.4924876,-5.169405 c 0.1643152,-0.326245 0.3183786,-0.630902 0.3423732,-0.677016 0.023973,-0.04612 0.1843005,-0.363648 0.3562573,-0.705639 l 0.312648,-0.621802 2.1527758,-2.153587 2.152776,-2.153586 0.644525,0.644494 0.644524,0.644494 -2.150116,2.150239 -2.150112,2.150245 -0.887291,0.447993 C 9.8264735,23.310704 9.2404906,23.606657 9.0122934,23.721987 L 8.5973993,23.93167 Z m 6.3560723,-6.061898 -0.644494,-0.644524 4.431215,-4.43121 c 2.437164,-2.4371654 4.434372,-4.4311979 4.438211,-4.4312098 0.0091,0 1.282019,1.2729117 1.282018,1.2820497 3.1e-5,0.004 -1.994054,2.0010221 -4.431228,4.4381951 L 15.896693,17.9211 Z m 9.264153,-9.2641696 -0.644486,-0.6445202 0.58024,-0.5802428 0.580243,-0.5802437 -0.03907,-0.066004 C 24.839157,5.8808965 24.739181,5.5761179 24.702333,5.2544741 c -0.01073,-0.09377 -0.01069,-0.3588263 0,-0.4541265 0.05233,-0.4624063 0.234457,-0.8828828 0.526723,-1.2160138 0.02847,-0.032453 0.415052,-0.4221579 0.859039,-0.8659767 0.641433,-0.6411855 0.8164,-0.812356 0.851708,-0.8333288 0.123824,-0.073506 0.26818,-0.078922 0.402919,-0.015133 0.05352,0.025339 0.06012,0.031851 1.672085,1.6438714 1.587328,1.587417 1.618832,1.6194389 1.643682,1.6708323 0.0641,0.1325704 0.05866,0.2804095 -0.01482,0.4042483 -0.02099,0.035325 -0.192211,0.2103344 -0.833326,0.8516916 C 29.36651,6.8845258 28.976652,7.2712388 28.943999,7.2999155 28.415086,7.7641867 27.6674,7.9439606 26.975592,7.7731919 26.763969,7.7209508 26.563694,7.6400453 26.387299,7.5355291 l -0.066,-0.039109 -0.580275,0.5802429 -0.580268,0.5802439 z m 3.194098,-1.028686 c 0.245264,-0.037437 0.481446,-0.1449717 0.671224,-0.3056483 0.03458,-0.029294 0.344073,-0.3346597 0.687748,-0.6786215 L 29.694299,5.3740615 28.424484,4.104303 27.154664,2.8345395 26.529307,3.4593869 c -0.343954,0.3436622 -0.64933,0.6531245 -0.678601,0.6877209 -0.416329,0.4917349 -0.429165,1.2052089 -0.03097,1.722187 0.04956,0.064348 0.68753,0.7096911 0.782665,0.7917171 0.09133,0.078741 0.171599,0.1332003 0.273684,0.1856737 0.151174,0.077712 0.316606,0.12737 0.489412,0.1469205 0.07686,0.00871 0.257028,0.00352 0.344969,-0.0099 z"
       id="path3" /></g></svg>
